# xmcd
#
# Track frame offsets:
# 150
# 23517
# 48787
# 69533
# 89128
# 107527
# 125942
# 149859
# 173103
# 191436
#
# Disc length: 2715 seconds
#
#
# Revision: 0
# Processed by: cddbd v1.5.2PL0 Copyright (c) Steve Scherf et al.
# Submitted via: Nero 7, 11, 10, 0 
#
DISCID=900a990a
DTITLE=Jay Stulo - Gone Crazy
DYEAR=2002
DGENRE=Blues
TTITLE0=Strange Things Happening
TTITLE1=My Other Woman Has Another Man
TTITLE2=Gone Crazy
TTITLE3=Let The Devil Drive
TTITLE4=Your Gonna Miss Me
TTITLE5=I Don't Think You Love Me
TTITLE6=Nobody But You
TTITLE7=There's Something Going On
TTITLE8=Worst News You Ever Had
TTITLE9=I Can't Give You Love
EXTD=
EXTT0=Strange Things Happening
EXTT1=My Other Woman Has Another Man
EXTT2=Gone Crazy
EXTT3=Let The Devil Drive
EXTT4=Your Gonna Miss Me
EXTT5=I Don't Think You Love Me
EXTT6=Nobody But You
EXTT7=There's Something Going On
EXTT8=Worst News You Ever Had
EXTT9=I Can't Give You Love
PLAYORDER=
